# xmcd
#
# Track frame offsets: 
#        150
#        19943
#        39445
#        60428
#        91863
#        113545
#        130124
#        148857
#        170369
#        192652
#        212310
#        232929
#        252527
#        265957
#        285346
#
# Disc length: 4176 seconds
#
# Revision: 0
# Processed by: cddbd v1.5.2PL0 Copyright (c) Steve Scherf et al.
# Submitted via: ExactAudioCopy v0.99pb5
#
DISCID=cb104e0f
DTITLE=Mike Elrod and The Roosters - Nuthin' But Trouble
DYEAR=2005
DGENRE=Blues
TTITLE0=She's Hot
TTITLE1=Wiggle Stick
TTITLE2=109
TTITLE3=Fool No Mre
TTITLE4=Get Yo Chicken
TTITLE5=Get It While You Can
TTITLE6=Low Down Dirty Shame
TTITLE7=Devil Makes Me Do It
TTITLE8=Empty Bottle
TTITLE9=Travlin' Blues
TTITLE10=Blackberry Wine
TTITLE11=Blue As You Can Get
TTITLE12=Invisable Planet
TTITLE13=Imaginary Arts And Crafts Day
TTITLE14=Mail Order Bride
EXTD=
EXTT0=
EXTT1=
EXTT2=
EXTT3=
EXTT4=
EXTT5=
EXTT6=
EXTT7=
EXTT8=
EXTT9=
EXTT10=
EXTT11=
EXTT12=
EXTT13=
EXTT14=
PLAYORDER=
